<svg width="536" height="110" viewBox="0 0 536 110" fill="none" xmlns="http://www.w3.org/2000/svg">
<path fill-rule="evenodd" clip-rule="evenodd" d="M286.882 44.2813C287.512 44.2755 288.018 43.7601 288.012 43.1301C288.007 42.5001 287.491 41.9942 286.861 42.0001L275.546 42.1051C274.141 42.1051 273.002 43.2443 273.002 44.6495V45.6051C273.002 47.5381 271.435 49.1051 269.502 49.1051H266.002C264.345 49.1051 263.002 50.4482 263.002 52.1051C263.002 53.7619 261.659 55.1051 260.002 55.1051H259.002C256.793 55.1051 255.002 56.896 255.002 59.1051V62.1051C255.002 64.3142 256.793 66.1051 259.002 66.1051H262.474C264.422 66.1051 266.002 67.6848 266.002 69.6334C266.002 71.582 267.582 73.1617 269.53 73.1617H315.03C316.119 73.1617 317.002 74.0446 317.002 75.1336C317.002 76.2226 317.885 77.1055 318.974 77.1055H335.002C337.211 77.1055 339.002 78.8963 339.002 81.1055V84.6617C339.002 87.147 341.017 89.1617 343.502 89.1617L347.002 89.1617L348.002 89.1617L382.002 89.1617C384.211 89.1617 386.002 90.9526 386.002 93.1617V105.162C386.002 107.371 387.793 109.162 390.002 109.162H400.002C402.211 109.162 404.002 107.371 404.002 105.162V90.1616C404.002 85.191 399.973 81.1616 395.002 81.1616H386.002C386.002 81.1616 386.002 81.1616 386.002 81.1617C386.002 81.1617 386.002 81.1617 386.002 81.1617H352.002C349.793 81.1617 348.002 79.3709 348.002 77.1617V69.6617C348.002 67.1765 345.987 65.1617 343.502 65.1617H342.03C342.015 65.1617 342.002 65.1491 342.002 65.1336C342.002 65.1181 341.989 65.1055 341.974 65.1055H317.03C317.015 65.1055 317.002 65.1181 317.002 65.1336C317.002 65.1491 316.989 65.1617 316.974 65.1617H271.002C268.793 65.1617 267.002 63.3709 267.002 61.1617V59.1051C267.002 56.896 268.793 55.1051 271.002 55.1051H273.002C274.659 55.1051 276.002 53.7619 276.002 52.1051V49.1051V48.3454C276.002 46.1507 277.77 44.3659 279.965 44.3456L286.882 44.2813Z" fill="url(#paint0_linear_1207_2)"/>
<path fill-rule="evenodd" clip-rule="evenodd" d="M298.527 6.93184C298.527 3.10349 301.631 0 305.459 0H350.667C356.659 0 361.517 4.85764 361.517 10.8498V17.2981C361.517 19.729 363.487 21.6997 365.918 21.6997C368.349 21.6997 370.32 19.729 370.32 17.2981V16.9802C370.32 14.3737 372.433 12.2608 375.039 12.2608H397.867C399.199 12.2608 400.278 13.3403 400.278 14.6719C400.278 16.0035 401.358 17.083 402.689 17.083H410.097C411.553 17.083 412.733 18.2629 412.733 19.7183C412.733 21.1738 413.913 22.3537 415.368 22.3537H421.552C424.729 22.3537 427.304 19.7784 427.304 16.6017C427.304 13.425 429.88 10.8498 433.056 10.8498H464.186C466.626 10.8498 468.603 12.8272 468.603 15.2665C468.603 17.7058 470.58 19.6832 473.02 19.6832H473.88C476.795 19.6832 479.157 22.0459 479.157 24.9604V28.9274C479.157 34.0328 475.019 38.1716 469.913 38.1716H441.071L412.737 38.1715C412.735 38.1715 412.733 38.1734 412.733 38.1757C412.733 38.1781 412.731 38.18 412.729 38.18H391.703C391.677 38.18 391.655 38.2014 391.655 38.2279C391.655 38.2544 391.634 38.2759 391.608 38.2759H332.349C332.312 38.2759 332.283 38.2462 332.283 38.2095C332.283 38.1729 332.253 38.1432 332.216 38.1432H330.681C330.678 38.1432 330.676 38.1451 330.676 38.1474C330.676 38.1497 330.674 38.1516 330.672 38.1516H282.616C282.582 38.1516 282.554 38.1795 282.554 38.2138C282.554 38.2482 282.526 38.276 282.492 38.276H254.06C253.984 38.276 253.922 38.2142 253.922 38.138C253.922 38.0618 253.86 38 253.784 38H241.962C235.357 38 230.002 32.6054 230.002 26V21C230.002 15.4772 234.479 11 240.002 11H252.002C254.763 11 257.002 13.2386 257.002 16V16.5C257.002 18.9853 259.017 21 261.502 21H264.296C265.238 21 266.002 21.7639 266.002 22.7061C266.002 23.6484 266.766 24.4123 267.708 24.4123H270.68C272.129 24.4123 273.304 23.2375 273.304 21.7883C273.304 20.3391 274.478 19.1643 275.928 19.1643H286.232C287.696 19.1643 288.883 17.9777 288.883 16.514C288.883 15.0503 290.069 13.8637 291.533 13.8637H293.705C296.368 13.8637 298.527 11.7047 298.527 9.04152V6.93184Z" fill="url(#paint1_linear_1207_2)"/>
<path fill-rule="evenodd" clip-rule="evenodd" d="M193.722 9C193.722 6.23858 191.484 4 188.722 4H161.525C158.885 4 156.745 6.13986 156.745 8.77952C156.745 11.4192 154.605 13.559 151.966 13.559H149.606C148.074 13.559 146.833 12.3174 146.833 10.7858C146.833 9.2542 145.591 8.01259 144.059 8.01259H122.865C121.281 8.01259 119.998 9.29608 119.998 10.8793C119.998 12.4626 118.715 13.7461 117.131 13.7461H108.129C106.402 13.7461 105.002 15.1461 105.002 16.873C105.002 18.6 103.602 20 101.875 20H81.002C78.2405 20 76.002 22.2386 76.002 25V36C76.002 38.7614 78.2405 41 81.002 41H124.743C126.543 41 128.002 39.541 128.002 37.7413C128.002 35.9416 129.461 34.4827 131.261 34.4827H139.091C139.14 34.4827 139.179 34.4434 139.179 34.3949C139.179 34.3464 139.218 34.3071 139.267 34.3071H158.054C158.139 34.3071 158.207 34.2384 158.207 34.1536C158.207 34.0688 158.276 34 158.361 34H184.002H206.002H237.002C239.763 34 242.002 31.7614 242.002 29V26C242.002 23.2386 239.763 21 237.002 21H209.502C207.569 21 206.002 19.433 206.002 17.5C206.002 15.567 204.435 14 202.502 14H198.722C195.961 14 193.722 11.7614 193.722 9Z" fill="url(#paint2_linear_1207_2)"/>
<path fill-rule="evenodd" clip-rule="evenodd" d="M8.42426 23.9418C8.42426 21.2125 10.6368 19 13.3661 19H60.018C62.7473 19 64.9598 21.2125 64.9598 23.9418C64.9598 26.6711 67.1724 28.8837 69.9017 28.8837H83.0646H84.8968C85.7627 28.8837 86.4648 28.1817 86.4648 27.3157C86.4648 26.4497 87.1668 25.7477 88.0328 25.7477H141.515C142.381 25.7477 143.083 26.4497 143.083 27.3157C143.083 28.1817 143.785 28.8837 144.651 28.8837H169.293C171.407 28.8837 173.121 30.5973 173.121 32.7112C173.121 34.8251 174.834 36.5387 176.948 36.5387H185.273C188.407 36.5387 190.947 39.0793 190.947 42.2134C190.947 45.3475 188.407 47.8881 185.273 47.8881H173.131C173.125 47.8881 173.121 47.8927 173.121 47.8984C173.121 47.904 173.116 47.9086 173.111 47.9086H90.0571H83.0646H9.51335C4.25977 47.9086 0.00088501 43.6497 0.00088501 38.3961V33.0954C0.00088501 30.7693 1.88652 28.8837 4.21257 28.8837C6.53862 28.8837 8.42426 26.998 8.42426 24.672V23.9418Z" fill="url(#paint3_linear_1207_2)"/>
<path fill-rule="evenodd" clip-rule="evenodd" d="M321.264 17.3839C321.264 13.3059 324.57 10 328.648 10H334.977C339.055 10 342.361 13.3059 342.361 17.384V18.4387C342.361 21.9342 345.194 24.7679 348.69 24.7679H352.608C353.94 24.7679 355.019 25.8474 355.019 27.179C355.019 28.5106 356.098 29.5901 357.43 29.5901H362.855C364.187 29.5901 365.266 28.5106 365.266 27.179C365.266 25.8474 366.346 24.7679 367.677 24.7679H383.952C385.284 24.7679 386.363 25.8474 386.363 27.179C386.363 28.5106 387.443 29.5901 388.774 29.5901H389.528C391.275 29.5901 392.692 31.0068 392.692 32.7545V35.015C392.692 38.0111 395.121 40.4399 398.117 40.4399H404.296C406.21 40.4399 407.762 41.9917 407.762 43.9059C407.762 45.82 406.21 47.3718 404.296 47.3718L392.692 47.3718H357.803C357.793 47.3718 357.784 47.3801 357.784 47.3904C357.784 47.4007 357.776 47.4091 357.766 47.4091H322.098C321.985 47.4091 321.893 47.3175 321.893 47.2045C321.893 47.0916 321.802 47 321.689 47H290.002C287.241 47 285.002 44.7614 285.002 42V40.6677C285.002 38.6421 286.644 37 288.67 37C290.695 37 292.337 35.3579 292.337 33.3323V31.3823C292.337 29.2202 294.09 27.4674 296.252 27.4674C298.415 27.4674 300.167 25.7146 300.167 23.5524V21.2955C300.167 17.8868 302.931 15.1236 306.339 15.1236H309.51C312.174 15.1236 314.332 17.2825 314.332 19.9457V21.3023C314.332 23.2163 315.884 24.7679 317.798 24.7679C319.712 24.7679 321.264 23.2163 321.264 21.3023V17.3839Z" fill="url(#paint4_linear_1207_2)"/>
<path fill-rule="evenodd" clip-rule="evenodd" d="M522.224 17.0719C522.224 14.2708 519.953 12 517.152 12H493.002C491.19 12 489.721 13.4692 489.721 15.2816C489.721 17.094 488.251 18.5633 486.439 18.5633H475.853C474.109 18.5633 472.695 19.9769 472.695 21.7207C472.695 23.4645 471.282 24.8781 469.538 24.8781H445.675C441.795 24.8781 438.65 28.023 438.65 31.9024V37.6024C438.65 38.3337 438.058 38.9266 437.326 38.9266C436.595 38.9266 436.002 39.5195 436.002 40.2508V46.6755C436.002 47.4069 436.595 47.9997 437.326 47.9997H438.65C438.65 47.9997 438.65 47.9998 438.65 47.9999C438.65 47.9999 438.65 48 438.651 48H470.225C470.225 48 470.225 48 470.225 48C470.225 48.0001 470.225 48.0001 470.225 48.0001H502.613H502.613H528.27C531.988 48.0001 535.002 44.9862 535.002 41.2684V37.3954C535.002 35.8166 533.722 34.5368 532.143 34.5368C530.565 34.5368 529.285 33.2569 529.285 31.6781V25.674C529.285 23.7243 527.704 22.1438 525.755 22.1438C523.805 22.1438 522.224 20.5632 522.224 18.6135V17.0719Z" fill="url(#paint5_linear_1207_2)"/>
<path fill-rule="evenodd" clip-rule="evenodd" d="M241.331 27.7104C241.331 26.7658 242.096 26 243.041 26H259.071C260.728 26 262.071 27.3431 262.071 29V30.5035C262.071 32.1603 263.414 33.5035 265.071 33.5035H266.016C267.672 33.5035 269.016 34.8466 269.016 36.5035V38.9999C269.016 40.6568 267.672 41.9999 266.016 41.9999H248.288C248.281 41.9999 248.275 41.9941 248.275 41.9869C248.275 41.9798 248.269 41.974 248.262 41.974H226.002C224.345 41.974 223.002 40.6308 223.002 38.974V35.8408C223.002 34.184 224.345 32.8408 226.002 32.8408H229.78C230.724 32.8408 231.49 32.0752 231.49 31.1308C231.49 30.1865 232.256 29.4209 233.2 29.4209H239.62C240.565 29.4209 241.331 28.6551 241.331 27.7104Z" fill="url(#paint6_linear_1207_2)"/>
<defs>
<linearGradient id="paint0_linear_1207_2" x1="303.747" y1="15.1357" x2="303.747" y2="96.2178" gradientUnits="userSpaceOnUse">
<stop stop-color="white"/>
<stop offset="1" stop-color="#ABF7FF"/>
</linearGradient>
<linearGradient id="paint1_linear_1207_2" x1="368.756" y1="63.2396" x2="387.887" y2="-20.5529" gradientUnits="userSpaceOnUse">
<stop stop-color="#1D9554"/>
<stop offset="1" stop-color="#249208"/>
<stop offset="1" stop-color="#039800"/>
</linearGradient>
<linearGradient id="paint2_linear_1207_2" x1="168.447" y1="65.1314" x2="193.886" y2="-11.6631" gradientUnits="userSpaceOnUse">
<stop stop-color="#1D9554"/>
<stop offset="1" stop-color="#249208"/>
<stop offset="1" stop-color="#039800"/>
</linearGradient>
<linearGradient id="paint3_linear_1207_2" x1="86.0213" y1="5.94936" x2="74.0629" y2="65.8337" gradientUnits="userSpaceOnUse">
<stop stop-color="#2B7A3D"/>
<stop offset="1" stop-color="#0E9C2E"/>
</linearGradient>
<linearGradient id="paint4_linear_1207_2" x1="335.347" y1="2.51178" x2="332.851" y2="66.2576" gradientUnits="userSpaceOnUse">
<stop offset="0.322061" stop-color="#2A793C"/>
<stop offset="1" stop-color="#0E9C2E"/>
</linearGradient>
<linearGradient id="paint5_linear_1207_2" x1="494.88" y1="4.79384" x2="510.769" y2="70.6909" gradientUnits="userSpaceOnUse">
<stop offset="0.322061" stop-color="#1D7630"/>
<stop offset="1" stop-color="#0E9C2E"/>
</linearGradient>
<linearGradient id="paint6_linear_1207_2" x1="243.731" y1="19.2545" x2="243.614" y2="59.0177" gradientUnits="userSpaceOnUse">
<stop stop-color="#257A38"/>
<stop offset="1" stop-color="#0E9C2E"/>
</linearGradient>
</defs>
</svg>
