<svg width="1920" height="220" viewBox="0 0 1920 220" fill="none" xmlns="http://www.w3.org/2000/svg">
<rect width="1920" height="139" transform="translate(0 81)" fill="url(#paint0_linear_862_86)"/>
<g filter="url(#filter0_f_862_86)">
<ellipse cx="1175" cy="176.121" rx="37" ry="8.5" fill="white" fill-opacity="0.12"/>
</g>
<path fill-rule="evenodd" clip-rule="evenodd" d="M868 94H898.267C900.329 94 902 95.6715 902 97.7333C902 99.7952 900.329 101.467 898.267 101.467H872.267C869.91 101.467 868 103.377 868 105.734V115.333C868 120.635 863.702 124.934 858.4 124.934H842.76C836.265 124.934 831 130.199 831 136.694C831 143.189 836.265 148.454 842.76 148.454H948.973C948.988 148.454 949 148.442 949 148.427C949 148.412 949.012 148.4 949.027 148.4H1034H1038H1055.8C1066.4 148.4 1075 156.996 1075 167.6C1075 178.204 1083.6 186.8 1094.2 186.8H1248H1254H1304.4C1318.54 186.8 1330 198.262 1330 212.4C1330 226.539 1318.54 238.001 1304.4 238.001H1262.93C1254.69 238.001 1248 231.315 1248 223.067C1248 214.82 1241.31 208.134 1233.07 208.134H1071C1071 208.134 1071 208.134 1071 208.133C1071 208.133 1071 208.133 1071 208.133H1052.5C1042.28 208.133 1034 199.85 1034 189.633V182.533C1034 168.395 1022.54 156.933 1008.4 156.933H953.836C951.165 156.933 949 159.098 949 161.769C949 164.44 946.835 166.606 944.164 166.606H824.036C819.598 166.606 816 163.008 816 158.57C816 154.131 812.402 150.534 807.964 150.534H778.8C771.731 150.534 766 144.803 766 137.733C766 130.664 771.731 124.933 778.8 124.933H793.4C798.702 124.933 803 120.635 803 115.334C803 110.032 807.298 105.734 812.6 105.734H843.733C846.09 105.734 848 103.823 848 101.467C848 97.343 851.343 94 855.467 94H868Z" fill="url(#paint1_linear_862_86)"/>
<path fill-rule="evenodd" clip-rule="evenodd" d="M1251.65 22.9466C1251.65 14.1395 1258.79 7 1267.6 7H1393.68C1405.83 7 1415.68 16.8497 1415.68 29V45.4574C1415.68 51.7879 1420.81 56.9197 1427.14 56.9197H1427.75C1433.74 56.9197 1438.6 52.0588 1438.6 46.0627C1438.6 40.0666 1443.47 35.2058 1449.46 35.2058H1511.07C1514.14 35.2058 1516.62 37.6891 1516.62 40.7524C1516.62 43.8158 1519.1 46.2991 1522.17 46.2991H1542.99C1546.34 46.2991 1549.05 49.0134 1549.05 52.3617C1549.05 55.7099 1551.77 58.4242 1555.11 58.4242H1573.77C1581.07 58.4242 1587 52.5 1587 45.192C1587 37.8841 1592.92 31.9598 1600.23 31.9598H1684.38C1689.99 31.9598 1694.54 36.5089 1694.54 42.1204C1694.54 47.7319 1699.09 52.2809 1704.7 52.2809H1708.29C1715.88 52.2809 1722.03 58.4334 1722.03 66.0229V73.547C1722.03 85.292 1712.51 94.8131 1700.76 94.8131H1622.85L1549.06 94.8129C1549.06 94.8129 1549.05 94.8173 1549.05 94.8227C1549.05 94.828 1549.05 94.8324 1549.04 94.8324H1494.27C1494.21 94.8324 1494.16 94.8818 1494.16 94.9427C1494.16 95.0036 1494.11 95.053 1494.05 95.053H1339.7C1339.62 95.053 1339.55 94.9846 1339.55 94.9004C1339.55 94.8161 1339.48 94.7478 1339.4 94.7478H1335.38C1335.37 94.7478 1335.37 94.7521 1335.37 94.7575C1335.37 94.7629 1335.37 94.7673 1335.36 94.7673H1210.2C1210.12 94.7673 1210.05 94.8313 1210.05 94.9103C1210.05 94.9893 1209.99 95.0534 1209.91 95.0534H1135.84C1135.65 95.0534 1135.49 94.8981 1135.49 94.7066C1135.49 94.5152 1135.34 94.3599 1135.15 94.3599H1085.9C1078.18 94.3599 1071.92 88.1018 1071.92 80.382V68.366C1071.92 67.2824 1071.04 66.404 1069.96 66.404C1068.88 66.404 1068 65.5257 1068 64.4421V49.5286C1068 40.2086 1075.55 32.6532 1084.87 32.6532H1130.87C1137.19 32.6532 1142.31 37.7751 1142.31 44.0933C1142.31 50.4114 1147.44 55.5333 1153.75 55.5333H1162.29C1164.39 55.5333 1166.1 57.2406 1166.1 59.3467C1166.1 61.4527 1167.81 63.16 1169.92 63.16H1179.93C1183.26 63.16 1185.97 60.4575 1185.97 57.1237C1185.97 53.7899 1188.67 51.0873 1192 51.0873H1220.44C1223.81 51.0873 1226.54 48.3576 1226.54 44.9903C1226.54 41.6229 1229.26 38.8932 1232.63 38.8932H1239.09C1246.03 38.8932 1251.65 33.2712 1251.65 26.3361V22.9466Z" fill="url(#paint2_linear_862_86)"/>
<path fill-rule="evenodd" clip-rule="evenodd" d="M660.036 20.5574C660.036 13.6221 654.414 8 647.479 8H576.191C569.317 8 563.745 13.5724 563.745 20.4463C563.745 27.3202 558.173 32.8926 551.299 32.8926H545.153C541.165 32.8926 537.932 29.6593 537.932 25.6709C537.932 21.6825 534.699 18.4492 530.71 18.4492H475.517C471.394 18.4492 468.052 21.7914 468.052 25.9142C468.052 30.037 464.71 33.3792 460.587 33.3792H448.526C437.742 33.3792 429 42.1212 429 52.9051V60.3792C429 75.2908 441.088 87.3792 456 87.3792H517.772C517.898 87.3792 518 87.2769 518 87.1508C518 87.0247 518.102 86.9225 518.228 86.9225H528.254C528.35 86.9225 528.427 87 528.427 87.0955C528.427 87.191 528.505 87.2684 528.6 87.2684H693.243L699.129 87.2684C708.881 87.2683 716.788 79.3622 716.788 69.6095V63.723C716.788 57.2213 711.517 51.9507 705.015 51.9507H702.661C697.459 51.9507 693.243 47.7341 693.243 42.5327C693.243 37.3313 689.026 33.1147 683.825 33.1147H672.593C665.658 33.1147 660.036 27.4926 660.036 20.5574Z" fill="url(#paint3_linear_862_86)"/>
<path fill-rule="evenodd" clip-rule="evenodd" d="M777.998 64.3789C777.998 52.2286 787.848 42.3789 799.998 42.3789H839.498C844.745 42.3789 848.998 46.6322 848.998 51.8789C848.998 57.1256 853.251 61.3789 858.498 61.3789H881.998C884.207 61.3789 885.998 59.588 885.998 57.3789C885.998 55.1698 887.789 53.3789 889.998 53.3789H960.998C962.655 53.3789 963.998 52.0358 963.998 50.3789C963.998 48.7221 965.341 47.3789 966.998 47.3789H990.309C990.689 47.3789 990.998 47.0702 990.998 46.6895C990.998 46.3087 991.307 46 991.688 46H1059.5C1070.82 46 1080 55.1782 1080 66.5C1080 77.8218 1070.82 87 1059.5 87H1027.19C1027.08 87 1027 87.0848 1027 87.1895C1027 87.2941 1026.91 87.3789 1026.81 87.3789H924.998H887.998H885.998H855.998H786.498C786.222 87.3789 785.998 87.155 785.998 86.8789C785.998 86.6028 785.774 86.3789 785.498 86.3789H781.998C779.789 86.3789 777.998 84.588 777.998 82.3789V64.3789Z" fill="url(#paint4_linear_862_86)"/>
<path fill-rule="evenodd" clip-rule="evenodd" d="M731.678 55.0028C731.678 52.4491 733.748 50.3789 736.302 50.3789H785.673C791.275 50.3789 795.816 54.9199 795.816 60.5216C795.816 66.1233 800.357 70.6643 805.959 70.6643H806.555C812.487 70.6643 817.295 75.4725 817.295 81.4038V82.1494C817.295 88.4925 812.153 93.6346 805.81 93.6346H753.191C753.172 93.6346 753.157 93.6193 753.157 93.6003C753.157 93.5814 753.142 93.5661 753.123 93.5661H687.345C680.526 93.5661 674.999 88.0387 674.999 81.2203C674.999 74.4019 680.526 68.8745 687.345 68.8745H696.626C699.18 68.8745 701.25 66.8043 701.25 64.2506C701.25 61.6969 703.32 59.6267 705.874 59.6267H727.054C729.608 59.6267 731.678 57.5565 731.678 55.0028Z" fill="url(#paint5_linear_862_86)"/>
<path fill-rule="evenodd" clip-rule="evenodd" d="M1877.12 57.3827C1877.12 53.3054 1873.81 50 1869.73 50H1729.56C1726.92 50 1724.78 52.1388 1724.78 54.7771C1724.78 57.4154 1722.64 59.5542 1720 59.5542H1649.58C1647.04 59.5542 1644.98 61.612 1644.98 64.1504C1644.98 66.6888 1642.93 68.7466 1640.39 68.7466H1607.85C1606.67 68.7466 1605.72 67.7928 1605.72 66.6162C1605.72 65.4397 1604.76 64.4859 1603.59 64.4859H1514.28C1513.11 64.4859 1512.15 65.4397 1512.15 66.6162C1512.15 67.7928 1511.2 68.7466 1510.02 68.7466H1495.65C1490 68.7466 1485.42 73.3244 1485.42 78.9713V82.99C1485.42 86.4175 1482.65 89.1961 1479.22 89.1961C1475.79 89.1961 1473.01 91.9746 1473.01 95.4021V96.1976C1473.01 99.6251 1475.79 102.404 1479.22 102.404H1485.42C1485.42 102.404 1485.42 102.404 1485.42 102.404C1485.42 102.404 1485.42 102.405 1485.42 102.405L1633.4 102.405H1780.95C1783.3 102.405 1785.2 100.501 1785.2 98.1534V93.9023C1785.2 93.9022 1785.2 93.9021 1785.2 93.9021C1785.2 93.9021 1785.2 93.9022 1785.2 93.9023V98.1534C1785.2 100.501 1787.1 102.405 1789.45 102.405H1927.2C1932.61 102.405 1937 98.0174 1937 92.6055C1937 87.1935 1932.61 82.8063 1927.2 82.8063H1919.23C1914.24 82.8063 1910.21 78.7677 1910.21 73.7859C1910.21 68.804 1906.17 64.7655 1901.18 64.7655H1884.5C1880.42 64.7655 1877.12 61.4601 1877.12 57.3827Z" fill="url(#paint6_linear_862_86)"/>
<path fill-rule="evenodd" clip-rule="evenodd" d="M985.824 20.8076C985.824 9.31588 995.14 0 1006.63 0H1019.96C1031.45 0 1040.76 9.31587 1040.76 20.8076V25.1337C1040.76 34.2362 1048.14 41.6152 1057.24 41.6152H1066.93C1070.68 41.6152 1073.73 44.657 1073.73 48.4093C1073.73 52.1617 1076.77 55.2035 1080.52 55.2035H1093.62C1097.37 55.2035 1100.41 52.1617 1100.41 48.4093C1100.41 44.657 1103.45 41.6152 1107.2 41.6152H1148.55C1152.31 41.6152 1155.35 44.657 1155.35 48.4093C1155.35 52.1617 1158.39 55.2035 1162.14 55.2035H1163.59C1168.14 55.2035 1171.83 58.893 1171.83 63.4442V70.4909C1171.83 78.9338 1178.67 85.7782 1187.12 85.7782H1201.31C1206.7 85.7782 1211.07 90.151 1211.07 95.545C1211.07 100.939 1206.7 105.312 1201.31 105.312H1122.39C1122.39 105.312 1122.39 105.312 1122.39 105.312C1122.39 105.312 1122.39 105.311 1122.39 105.311H1080.98C1080.95 105.311 1080.92 105.335 1080.92 105.364C1080.92 105.393 1080.9 105.417 1080.87 105.417H987.462H987.461H908.629C900.549 105.417 893.998 98.8666 893.998 90.7866V84.4055C893.998 79.8497 897.692 76.1564 902.248 76.1564C906.803 76.1564 910.497 72.4632 910.497 67.9073V59.4168C910.497 53.7864 915.061 49.222 920.691 49.222C926.322 49.222 930.886 44.6576 930.886 39.0272V31.8299C930.886 22.2244 938.673 14.4377 948.278 14.4377H954.185C961.69 14.4377 967.773 20.5216 967.773 28.0264V32.5898C967.773 37.5744 971.814 41.6152 976.799 41.6152C981.783 41.6152 985.824 37.5744 985.824 32.5898V20.8076Z" fill="url(#paint7_linear_862_86)"/>
<path fill-rule="evenodd" clip-rule="evenodd" d="M26 40.5586C26 30.8613 33.8613 23 43.5586 23H184.441C194.139 23 202 30.8613 202 40.5586C202 50.2559 209.861 58.1172 219.559 58.1172H258.502H264.941C267.183 58.1172 269 56.3001 269 54.0586C269 51.8171 270.817 50 273.059 50H402.941C405.183 50 407 51.8171 407 54.0586C407 56.3001 408.817 58.1172 411.059 58.1172H528.798C534.302 58.1172 538.765 62.5795 538.765 68.084C538.765 73.5885 543.227 78.0508 548.731 78.0508H579.465C587.626 78.0508 594.242 84.6669 594.242 92.8282C594.242 100.99 587.626 107.606 579.465 107.606H538.792C538.777 107.606 538.765 107.618 538.765 107.633C538.765 107.648 538.752 107.66 538.737 107.66H280.264H258.502H24.7725C11.0917 107.66 0.00115967 96.5693 0.00115967 82.8885V71.1166C0.00115967 63.9372 5.82123 58.1172 13.0006 58.1172C20.1799 58.1172 26 52.2971 26 45.1178V40.5586Z" fill="url(#paint8_linear_862_86)"/>
<defs>
<filter id="filter0_f_862_86" x="1118" y="147.621" width="114" height="57" filterUnits="userSpaceOnUse" color-interpolation-filters="sRGB">
<feFlood flood-opacity="0" result="BackgroundImageFix"/>
<feBlend mode="normal" in="SourceGraphic" in2="BackgroundImageFix" result="shape"/>
<feGaussianBlur stdDeviation="10" result="effect1_foregroundBlur_862_86"/>
</filter>
<linearGradient id="paint0_linear_862_86" x1="777" y1="-61.5" x2="776.479" y2="239.413" gradientUnits="userSpaceOnUse">
<stop stop-color="#328668"/>
<stop offset="0.649044" stop-color="#52BF71"/>
</linearGradient>
<linearGradient id="paint1_linear_862_86" x1="874" y1="20.7896" x2="874" y2="225.295" gradientUnits="userSpaceOnUse">
<stop stop-color="white"/>
<stop offset="1" stop-color="#ABF7FF"/>
</linearGradient>
<linearGradient id="paint2_linear_862_86" x1="1432.23" y1="152.482" x2="1471.24" y2="-42.5227" gradientUnits="userSpaceOnUse">
<stop stop-color="#1D9554"/>
<stop offset="1" stop-color="#249208"/>
<stop offset="1" stop-color="#039800"/>
</linearGradient>
<linearGradient id="paint3_linear_862_86" x1="589.268" y1="139.15" x2="653.434" y2="-17.3789" gradientUnits="userSpaceOnUse">
<stop stop-color="#1D9554"/>
<stop offset="1" stop-color="#249208"/>
<stop offset="1" stop-color="#039800"/>
</linearGradient>
<linearGradient id="paint4_linear_862_86" x1="946.181" y1="116.728" x2="968.061" y2="17.9257" gradientUnits="userSpaceOnUse">
<stop stop-color="#1D9554"/>
<stop offset="1" stop-color="#249208"/>
<stop offset="1" stop-color="#039800"/>
</linearGradient>
<linearGradient id="paint5_linear_862_86" x1="739.103" y1="32.1426" x2="738.826" y2="139.642" gradientUnits="userSpaceOnUse">
<stop stop-color="#257A38"/>
<stop offset="1" stop-color="#0E9C2E"/>
</linearGradient>
<linearGradient id="paint6_linear_862_86" x1="1748.96" y1="39.5101" x2="1756.52" y2="140.446" gradientUnits="userSpaceOnUse">
<stop offset="0.322061" stop-color="#1D7630"/>
<stop offset="1" stop-color="#0E9C2E"/>
</linearGradient>
<linearGradient id="paint7_linear_862_86" x1="1022.5" y1="-21.1014" x2="1014.89" y2="158.484" gradientUnits="userSpaceOnUse">
<stop offset="0.322061" stop-color="#2A793C"/>
<stop offset="1" stop-color="#0E9C2E"/>
</linearGradient>
<linearGradient id="paint8_linear_862_86" x1="267.704" y1="-1.60628" x2="241.343" y2="156.152" gradientUnits="userSpaceOnUse">
<stop stop-color="#2B7A3D"/>
<stop offset="1" stop-color="#0E9C2E"/>
</linearGradient>
</defs>
</svg>
